<svg width="24" height="24" viewBox="0 0 24 24" fill="none"
  xmlns="http://www.w3.org/2000/svg">
  <path d="M20.8903 19.2929C19.1551 17.5247 18.2757 15.432 18.2757 13.0727V9.63865C18.2917 7.02053 16.5748 5.28402 15.0995 4.59255C14.6769 4.39438 14.2412 4.24165 13.7985 4.12825V3.90909C13.7985 2.85642 12.9633 2 11.9368 2C10.9102 2 10.075 2.85642 10.075 3.90909V4.16147C9.67624 4.27182 9.28415 4.41576 8.90361 4.59598C7.27309 5.36649 5.62135 7.22365 5.60646 9.63636V13.0727C5.60646 15.5118 4.76643 17.6045 3.10985 19.2929C3.01118 19.3937 2.97543 19.5423 3.01714 19.6786C3.05884 19.8149 3.17166 19.9157 3.30906 19.9401L6.84303 20.5659C7.50134 20.6824 8.10753 20.7778 8.6843 20.8565C9.33442 22.1623 10.6105 23 12.0045 23C13.399 23 14.6754 22.1615 15.3248 20.8549C15.8993 20.7767 16.5025 20.6816 17.1571 20.5655L20.6907 19.9397C20.8281 19.9157 20.9406 19.8145 20.9826 19.6782C21.0247 19.5423 20.989 19.3937 20.8903 19.2929ZM10.8193 3.90909C10.8193 3.27756 11.3205 2.76364 11.9364 2.76364C12.5523 2.76364 13.0534 3.27756 13.0534 3.90909V3.97858C12.3114 3.86938 11.5585 3.87396 10.8193 3.99653V3.90909ZM12.0045 22.2364C11.0617 22.2364 10.1808 21.756 9.61517 20.9706C10.4474 21.0585 11.2241 21.1027 12.0004 21.1027C12.7798 21.1027 13.5591 21.0585 14.3947 20.9695C13.8287 21.7557 12.9473 22.2364 12.0045 22.2364ZM17.0305 19.813C16.316 19.9393 15.661 20.0421 15.0422 20.123C15.0414 20.123 15.0407 20.123 15.0399 20.123C14.7674 20.1585 14.5023 20.1894 14.2427 20.2162C14.2401 20.2165 14.2371 20.2165 14.2345 20.2169C13.9974 20.2414 13.7654 20.2608 13.536 20.278C13.4924 20.2815 13.4493 20.2841 13.4057 20.2872C13.2069 20.3005 13.0103 20.3112 12.8148 20.3189C12.7746 20.3204 12.7343 20.3227 12.6941 20.3238C12.2309 20.3399 11.7741 20.3399 11.3112 20.3242C11.2703 20.3227 11.2286 20.3208 11.1876 20.3189C10.9947 20.3112 10.8004 20.3009 10.6041 20.2876C10.558 20.2845 10.5118 20.2815 10.4652 20.278C10.2418 20.2616 10.0158 20.2421 9.78459 20.2188C9.7764 20.2181 9.76858 20.2173 9.76076 20.2165C9.50309 20.1902 9.23984 20.1593 8.96914 20.1241C8.96803 20.1241 8.96691 20.1241 8.96579 20.1241C8.34471 20.0436 7.68752 19.9401 6.96963 19.8133L4.11706 19.3078C5.60013 17.569 6.35115 15.4751 6.35115 13.0727V9.63865C6.36381 7.56347 7.79885 5.95907 9.2149 5.28936C9.63602 5.09044 10.0728 4.94191 10.517 4.83767C10.5207 4.83691 10.5248 4.83729 10.5285 4.83653C11.446 4.625 12.4227 4.61545 13.351 4.81056C13.3558 4.81171 13.3606 4.80942 13.3655 4.81018C13.851 4.91404 14.3291 5.07135 14.7897 5.28707C16.1633 5.9312 17.5436 7.52491 17.5306 9.63674V13.0731C17.5306 15.3766 18.3404 17.5186 19.8812 19.3086L17.0305 19.813Z" fill="#FFFFFF" stroke="#FFFFFF" stroke-width="0.625"/>
  <path d="M14.3257 6.32908C12.8829 5.65288 11.1161 5.65211 9.68288 6.32984C8.86557 6.71624 7.47932 7.8468 7.46815 9.63409C7.46703 9.84486 7.63235 10.0167 7.83826 10.0182C7.83901 10.0182 7.83975 10.0182 7.84049 10.0182C8.04491 10.0182 8.21173 9.84906 8.21284 9.63868C8.22141 8.23473 9.33697 7.3344 9.99454 7.02322C11.2348 6.43637 12.7671 6.43789 14.0155 7.02322C14.2025 7.11104 14.4236 7.02666 14.5093 6.83499C14.5949 6.64293 14.5126 6.41651 14.3257 6.32908Z" fill="#FFFFFF" stroke="#FFFFFF" stroke-width="0.275"/>
</svg>
