<svg width="24" height="24" viewBox="0 0 24 24" fill="none"
  xmlns="http://www.w3.org/2000/svg">
  <g clip-path="url(#clip0)">
    <path d="M23.7945 0.206799C23.5957 0.00786169 23.2973 -0.0533101 23.0363 0.0511272L0.442496 9.08852C0.183981 9.19192 0.0108719 9.43811 0.000934453 9.71641C-0.00895615 9.99465 0.146294 10.2525 0.396793 10.374L9.30621 14.695L13.6272 23.6044C13.7451 23.8474 13.9912 24.0007 14.2597 24.0007C14.2681 24.0007 14.2765 24.0006 14.2848 24.0003C14.563 23.9904 14.8093 23.8173 14.9127 23.5588L23.9502 0.965141C24.0546 0.703954 23.9934 0.405689 23.7945 0.206799ZM2.44237 9.80317L20.3779 2.62901L9.68909 13.3178L2.44237 9.80317ZM14.1981 21.5589L10.6834 14.3121L21.3723 3.62332L14.1981 21.5589Z" fill="#FFFFFF"/>
  </g>
  <defs>
    <clipPath id="clip0">
      <rect width="24" height="24" fill="white"/>
    </clipPath>
  </defs>
</svg>
