<svg width="20" height="20" viewBox="0 0 20 20" fill="none"
  xmlns="http://www.w3.org/2000/svg">
  <path d="M5.96999 5.09635C5.71039 4.83654 5.28922 4.83654 5.02963 5.09635C4.06578 6.06019 3.59205 7.40288 3.72972 8.78037C3.76407 9.12353 4.05316 9.37933 4.39077 9.37933C4.41295 9.37933 4.43531 9.3782 4.45749 9.37599C4.82305 9.33943 5.08971 9.01332 5.05315 8.64801C4.95517 7.66908 5.28947 6.71723 5.96999 6.03667C6.22979 5.77711 6.22979 5.35591 5.96999 5.09635Z" fill="#505050" stroke="#505050" stroke-width="0.2"/>
  <path d="M8.60345 1C4.41089 1 1 4.41089 1 8.60345C1 12.796 4.41089 16.2069 8.60345 16.2069C12.796 16.2069 16.2069 12.796 16.2069 8.60345C16.2069 4.41089 12.796 1 8.60345 1ZM8.60345 14.8768C5.14422 14.8768 2.33007 12.0627 2.33007 8.60345C2.33007 5.14422 5.14422 2.33007 8.60345 2.33007C12.0625 2.33007 14.8768 5.14422 14.8768 8.60345C14.8768 12.0627 12.0627 14.8768 8.60345 14.8768Z" fill="#505050" stroke="#505050" stroke-width="0.2"/>
  <path d="M18.8051 17.8648L13.9726 13.0323C13.7128 12.7725 13.2921 12.7725 13.0323 13.0323C12.7725 13.2919 12.7725 13.7131 13.0323 13.9726L17.8648 18.8051C17.9947 18.935 18.1647 19 18.335 19C18.5052 19 18.6752 18.935 18.8051 18.8051C19.0649 18.5456 19.0649 18.1244 18.8051 17.8648Z" fill="#505050" stroke="#505050" stroke-width="0.2"/>
</svg>
