<svg width="245" height="37" viewBox="0 0 245 37" fill="none" xmlns="http://www.w3.org/2000/svg">
<path d="M0.544 1.424C1.912 0.847999 3.1 0.559999 4.108 0.559999C5.116 0.559999 6.004 0.655999 6.772 0.847998C7.54 1.04 8.32 1.364 9.112 1.82C9.928 2.252 10.684 2.792 11.38 3.44C12.724 4.712 13.864 6.152 14.8 7.76L22 21.26L32.44 3.296H32.764L36.508 24.464C37.084 27.728 38.08 30.32 39.496 32.24C40.912 34.184 42.856 35.156 45.328 35.156C45.496 35.156 45.652 35.156 45.796 35.156V35.516C44.476 35.876 43.18 36.056 41.908 36.056C39.316 36.056 36.952 35.036 34.816 32.996C32.752 31.052 31.348 28.208 30.604 24.464L28.84 13.988L22.072 25.724C21.16 27.236 20.692 28.568 20.668 29.72H20.344L11.38 12.728L9.616 27.128C9.544 27.68 9.784 28.124 10.336 28.46C10.552 28.604 10.78 28.676 11.02 28.676H11.596V29H4.072V28.64H4.648C5.272 28.64 5.824 28.46 6.304 28.1C6.808 27.716 7.12 27.2 7.24 26.552L9.688 9.38C8.608 7.46 7.372 5.756 5.98 4.268C4.42 2.588 2.788 1.748 1.084 1.748C0.916 1.748 0.76 1.76 0.616 1.784L0.544 1.424ZM65.4078 28.64H65.7318V29H54.2478V28.64H54.5718C55.0998 28.64 55.4838 28.484 55.7238 28.172C55.9878 27.836 56.1198 27.524 56.1198 27.236C56.1198 26.948 56.0598 26.66 55.9398 26.372L54.1758 21.944H45.7518L43.8798 26.372C43.7598 26.684 43.6998 26.984 43.6998 27.272C43.6998 27.536 43.8198 27.836 44.0598 28.172C44.3238 28.484 44.7318 28.64 45.2838 28.64H45.5718V29H37.8678V28.64H38.1918C38.7438 28.64 39.2958 28.472 39.8478 28.136C40.3998 27.8 40.8558 27.296 41.2158 26.624L49.5318 7.796C50.6598 5.42 51.2598 3.848 51.3318 3.08H51.6558L62.3478 26.552C62.7078 27.248 63.1638 27.776 63.7158 28.136C64.2678 28.472 64.8318 28.64 65.4078 28.64ZM46.3638 20.432H53.5638L50.0718 11.576L46.3638 20.432ZM94.0214 4.16C93.4214 4.16 92.9054 4.376 92.4734 4.808C92.0414 5.216 91.8134 5.72 91.7894 6.32V24.896C91.7894 26.504 91.8974 27.86 92.1134 28.964L92.2214 29.504H91.8974L73.7174 12.188V26.48C73.7174 27.08 73.9334 27.596 74.3654 28.028C74.7974 28.436 75.3134 28.64 75.9134 28.64H76.5974V29H65.6894V28.64H66.3374C66.9614 28.64 67.4894 28.436 67.9214 28.028C68.3534 27.596 68.5694 27.068 68.5694 26.444V7.76C68.5694 6.176 68.4614 4.856 68.2454 3.8L68.1734 3.26H68.4974L86.6774 20.576V6.356C86.6534 5.732 86.4254 5.216 85.9934 4.808C85.5614 4.376 85.0454 4.16 84.4454 4.16H83.7974V3.8H94.7054V4.16H94.0214ZM124.644 17.3H124.104C123.528 17.3 123.084 17.444 122.772 17.732C122.46 17.996 122.304 18.392 122.304 18.92V24.86C121.368 26.084 119.82 27.164 117.66 28.1C115.5 29.036 113.076 29.504 110.388 29.504C106.284 29.504 102.984 28.328 100.488 25.976C98.0162 23.6 96.7802 20.408 96.7802 16.4C96.7802 12.368 98.0162 9.176 100.488 6.824C102.984 4.472 106.356 3.296 110.604 3.296C112.524 3.296 114.384 3.488 116.184 3.872C117.984 4.232 119.436 4.688 120.54 5.24L120.612 11.432H120.288C119.664 9.104 118.596 7.424 117.084 6.392C115.572 5.336 113.772 4.808 111.684 4.808C108.78 4.808 106.548 5.852 104.988 7.94C103.428 10.004 102.648 12.848 102.648 16.472C102.648 20.072 103.356 22.892 104.772 24.932C106.212 26.972 108.24 27.992 110.856 27.992C112.752 27.992 114.336 27.452 115.608 26.372C116.232 25.82 116.688 25.172 116.976 24.428V18.92C116.976 18.392 116.808 17.996 116.472 17.732C116.16 17.444 115.704 17.3 115.104 17.3H114.528V16.94H124.644V17.3ZM151.33 28.64H151.654V29H140.17V28.64H140.494C141.022 28.64 141.406 28.484 141.646 28.172C141.91 27.836 142.042 27.524 142.042 27.236C142.042 26.948 141.982 26.66 141.862 26.372L140.098 21.944H131.674L129.802 26.372C129.682 26.684 129.622 26.984 129.622 27.272C129.622 27.536 129.742 27.836 129.982 28.172C130.246 28.484 130.654 28.64 131.206 28.64H131.494V29H123.79V28.64H124.114C124.666 28.64 125.218 28.472 125.77 28.136C126.322 27.8 126.778 27.296 127.138 26.624L135.454 7.796C136.582 5.42 137.182 3.848 137.254 3.08H137.578L148.27 26.552C148.63 27.248 149.086 27.776 149.638 28.136C150.19 28.472 150.754 28.64 151.33 28.64ZM132.286 20.432H139.486L135.994 11.576L132.286 20.432ZM198.591 35.12C196.719 36.056 194.727 36.524 192.615 36.524C190.743 36.524 189.039 36.236 187.503 35.66C184.191 34.436 181.371 32.048 179.043 28.496C178.443 27.632 177.327 25.976 175.695 23.528C174.063 21.08 173.007 19.52 172.527 18.848C171.687 17.528 171.015 16.808 170.511 16.688V16.328C170.535 16.328 170.559 16.328 170.583 16.328C170.631 16.328 170.679 16.328 170.727 16.328C170.775 16.328 170.823 16.328 170.871 16.328C170.919 16.328 170.979 16.328 171.051 16.328C171.123 16.328 171.183 16.328 171.231 16.328C172.455 16.328 173.583 16.052 174.615 15.5C176.175 14.636 176.955 13.04 176.955 10.712C176.955 9.008 176.475 7.7 175.515 6.788C174.555 5.852 173.403 5.384 172.059 5.384H169.323V26.372C169.323 26.996 169.551 27.536 170.007 27.992C170.463 28.424 171.003 28.64 171.627 28.64H172.095V29H161.151V28.64H161.619C162.219 28.64 162.747 28.424 163.203 27.992C163.659 27.56 163.899 27.032 163.923 26.408V6.428C163.899 5.804 163.659 5.276 163.203 4.844C162.771 4.388 162.243 4.16 161.619 4.16H161.151V3.8H173.499C176.595 3.8 178.995 4.508 180.699 5.924C182.043 7.028 182.715 8.588 182.715 10.604C182.715 12.62 182.055 14.264 180.735 15.536C179.439 16.784 177.951 17.408 176.271 17.408C176.127 17.408 175.971 17.396 175.803 17.372C176.787 17.9 177.603 18.488 178.251 19.136C178.923 19.784 179.499 20.396 179.979 20.972C180.483 21.548 180.903 22.064 181.239 22.52C181.599 22.952 182.067 23.54 182.643 24.284C183.219 25.004 183.819 25.76 184.443 26.552C185.067 27.344 185.751 28.16 186.495 29C187.263 29.816 188.103 30.596 189.015 31.34C189.951 32.084 190.899 32.696 191.859 33.176C193.899 34.208 196.143 34.736 198.591 34.76V35.12ZM212.431 28.64H212.755V29H201.271V28.64H201.595C202.123 28.64 202.507 28.484 202.747 28.172C203.011 27.836 203.143 27.524 203.143 27.236C203.143 26.948 203.083 26.66 202.963 26.372L201.199 21.944H192.775L190.903 26.372C190.783 26.684 190.723 26.984 190.723 27.272C190.723 27.536 190.843 27.836 191.083 28.172C191.347 28.484 191.755 28.64 192.307 28.64H192.595V29H184.891V28.64H185.215C185.767 28.64 186.319 28.472 186.871 28.136C187.423 27.8 187.879 27.296 188.239 26.624L196.555 7.796C197.683 5.42 198.283 3.848 198.355 3.08H198.679L209.371 26.552C209.731 27.248 210.187 27.776 210.739 28.136C211.291 28.472 211.855 28.64 212.431 28.64ZM193.387 20.432H200.587L197.095 11.576L193.387 20.432ZM244.224 4.16H243.9C243.3 4.16 242.688 4.34 242.064 4.7C241.464 5.06 241.032 5.576 240.768 6.248L234.72 25.652C234.312 26.972 234.108 28.196 234.108 29.324C234.108 29.444 234.108 29.552 234.108 29.648H233.748L225.9 12.26L220.212 25.652C219.66 27.044 219.372 28.376 219.348 29.648H218.988L210.384 6.248C210.072 5.552 209.628 5.036 209.052 4.7C208.476 4.34 207.887 4.16 207.287 4.16H207V3.8H217.98V4.16H217.656C217.152 4.16 216.768 4.328 216.504 4.664C216.264 4.976 216.144 5.276 216.144 5.564C216.144 5.852 216.192 6.128 216.288 6.392L220.716 18.92L227.232 3.224L227.556 3.26L234.72 19.064L238.32 6.392C238.392 6.128 238.428 5.852 238.428 5.564C238.428 5.276 238.308 4.976 238.068 4.664C237.852 4.328 237.48 4.16 236.952 4.16H236.628V3.8H244.224V4.16Z" fill="url(#paint0_linear)"/>
<defs>
<linearGradient id="paint0_linear" x1="4" y1="17.9024" x2="244" y2="17.9024" gradientUnits="userSpaceOnUse">
<stop stop-color="#4F33FF"/>
<stop offset="0.526042" stop-color="#7D1DC8"/>
<stop offset="1" stop-color="#AF00A9"/>
</linearGradient>
</defs>
</svg>
