<svg width="24" height="24" viewBox="0 0 24 24" fill="none"
  xmlns="http://www.w3.org/2000/svg">
  <path d="M15.9445 2.08653C15.6268 1.92776 15.2636 1.9958 14.9913 2.22261C14.7189 2.44941 14.6054 2.78962 14.6962 3.12983C14.9232 4.05973 15.014 5.03499 14.9459 6.05561C14.6508 10.8185 10.815 14.6288 6.0486 14.9237C5.07262 14.9917 4.09665 14.901 3.12067 14.6969C2.78021 14.6062 2.43976 14.7196 2.21279 15.0144C1.98581 15.2866 1.94042 15.6495 2.0766 15.967C3.80158 19.6639 7.47852 22 11.564 22C11.7456 22 11.9498 22 12.1314 21.9773C17.3745 21.7052 21.6869 17.3732 21.982 12.134C22.2316 7.84737 19.8711 3.90096 15.9445 2.08653ZM21.0741 12.0886C20.8244 16.8742 16.8751 20.8206 12.086 21.0701C8.15943 21.2742 4.55059 19.1196 2.9164 15.5814C3.98316 15.8309 5.04993 15.8989 6.11669 15.8309C11.337 15.4907 15.536 11.3175 15.8764 6.10097C15.9445 4.98963 15.8538 3.92365 15.6041 2.90302C19.1448 4.5587 21.3011 8.1649 21.0741 12.0886Z" fill="#FFFFFF" stroke="#FFFFFF" stroke-width="0.5"/>
  <path d="M15.7635 17.7361C15.5592 17.8721 15.5138 18.167 15.65 18.3711C15.7408 18.5072 15.877 18.5752 16.0358 18.5752C16.1266 18.5752 16.2174 18.5526 16.2855 18.5072C18.0332 17.2824 19.2815 15.5134 19.7355 13.4494C19.7809 13.2 19.6447 12.9505 19.395 12.9051C19.1453 12.8598 18.9184 12.9958 18.8503 13.2453C18.4417 15.0824 17.3523 16.6701 15.7635 17.7361Z" fill="#FFFFFF" stroke="#FFFFFF" stroke-width="0.35"/>
  <path d="M14.1066 18.5979C13.9704 18.6433 13.8569 18.6886 13.698 18.734C13.4484 18.802 13.3122 19.0515 13.3803 19.301C13.4484 19.5051 13.6299 19.6412 13.8115 19.6412C13.8569 19.6412 13.9023 19.6412 13.9477 19.6185C14.1519 19.5732 14.2881 19.5051 14.447 19.4371C14.674 19.3464 14.7875 19.0742 14.6967 18.8474C14.6059 18.5979 14.3335 18.4845 14.1066 18.5979Z" fill="#FFFFFF" stroke="#FFFFFF" stroke-width="0.5"/>
</svg>
