<svg width="345" height="49" viewBox="0 0 345 49" fill="none" xmlns="http://www.w3.org/2000/svg">
<path d="M0.392 1.232C2.216 0.463999 3.8 0.079999 5.144 0.079999C6.488 0.079999 7.672 0.207998 8.696 0.463997C9.72 0.719997 10.76 1.152 11.816 1.76C12.904 2.336 13.912 3.056 14.84 3.92C16.632 5.616 18.152 7.536 19.4 9.68L29 27.68L42.92 3.728H43.352L48.344 31.952C49.112 36.304 50.44 39.76 52.328 42.32C54.216 44.912 56.808 46.208 60.104 46.208C60.328 46.208 60.536 46.208 60.728 46.208V46.688C58.968 47.168 57.24 47.408 55.544 47.408C52.088 47.408 48.936 46.048 46.088 43.328C43.336 40.736 41.464 36.944 40.472 31.952L38.12 17.984L29.096 33.632C27.88 35.648 27.256 37.424 27.224 38.96H26.792L14.84 16.304L12.488 35.504C12.392 36.24 12.712 36.832 13.448 37.28C13.736 37.472 14.04 37.568 14.36 37.568H15.128V38H5.096V37.52H5.864C6.696 37.52 7.432 37.28 8.072 36.8C8.744 36.288 9.16 35.6 9.32 34.736L12.584 11.84C11.144 9.28 9.496 7.008 7.64 5.024C5.56 2.784 3.384 1.664 1.112 1.664C0.888 1.664 0.68 1.68 0.488 1.712L0.392 1.232ZM89.2771 37.52H89.7091V38H74.3971V37.52H74.8291C75.5331 37.52 76.0451 37.312 76.3651 36.896C76.7171 36.448 76.8931 36.032 76.8931 35.648C76.8931 35.264 76.8131 34.88 76.6531 34.496L74.3011 28.592H63.0691L60.5731 34.496C60.4131 34.912 60.3331 35.312 60.3331 35.696C60.3331 36.048 60.4931 36.448 60.8131 36.896C61.1651 37.312 61.7091 37.52 62.4451 37.52H62.8291V38H52.5571V37.52H52.9891C53.7251 37.52 54.4611 37.296 55.1971 36.848C55.9331 36.4 56.5411 35.728 57.0211 34.832L68.1091 9.728C69.6131 6.56 70.4131 4.464 70.5091 3.44H70.9411L85.1971 34.736C85.6771 35.664 86.2851 36.368 87.0211 36.848C87.7571 37.296 88.5091 37.52 89.2771 37.52ZM63.8851 26.576H73.4851L68.8291 14.768L63.8851 26.576ZM129.829 4.88C129.029 4.88 128.341 5.168 127.765 5.744C127.189 6.288 126.885 6.96 126.853 7.76V32.528C126.853 34.672 126.997 36.48 127.285 37.952L127.429 38.672H126.997L102.757 15.584V34.64C102.757 35.44 103.045 36.128 103.621 36.704C104.197 37.248 104.885 37.52 105.685 37.52H106.597V38H92.0525V37.52H92.9165C93.7485 37.52 94.4525 37.248 95.0285 36.704C95.6045 36.128 95.8925 35.424 95.8925 34.592V9.68C95.8925 7.568 95.7485 5.808 95.4605 4.4L95.3645 3.68H95.7965L120.037 26.768V7.808C120.005 6.976 119.701 6.288 119.125 5.744C118.549 5.168 117.861 4.88 117.061 4.88H116.197V4.4H130.741V4.88H129.829ZM173.059 22.4H172.339C171.571 22.4 170.979 22.592 170.563 22.976C170.147 23.328 169.939 23.856 169.939 24.56V32.48C168.691 34.112 166.627 35.552 163.747 36.8C160.867 38.048 157.635 38.672 154.051 38.672C148.579 38.672 144.179 37.104 140.851 33.968C137.555 30.8 135.907 26.544 135.907 21.2C135.907 15.824 137.555 11.568 140.851 8.432C144.179 5.296 148.675 3.728 154.339 3.728C156.899 3.728 159.379 3.984 161.779 4.496C164.179 4.976 166.115 5.584 167.587 6.32L167.683 14.576H167.251C166.419 11.472 164.995 9.232 162.979 7.856C160.963 6.448 158.563 5.744 155.779 5.744C151.907 5.744 148.931 7.136 146.851 9.92C144.771 12.672 143.731 16.464 143.731 21.296C143.731 26.096 144.675 29.856 146.563 32.576C148.483 35.296 151.187 36.656 154.675 36.656C157.203 36.656 159.315 35.936 161.011 34.496C161.843 33.76 162.451 32.896 162.835 31.904V24.56C162.835 23.856 162.611 23.328 162.163 22.976C161.747 22.592 161.139 22.4 160.339 22.4H159.571V21.92H173.059V22.4ZM211.04 37.52H211.472V38H196.16V37.52H196.592C197.296 37.52 197.808 37.312 198.128 36.896C198.48 36.448 198.656 36.032 198.656 35.648C198.656 35.264 198.576 34.88 198.416 34.496L196.064 28.592H184.832L182.336 34.496C182.176 34.912 182.096 35.312 182.096 35.696C182.096 36.048 182.256 36.448 182.576 36.896C182.928 37.312 183.472 37.52 184.208 37.52H184.592V38H174.32V37.52H174.752C175.488 37.52 176.224 37.296 176.96 36.848C177.696 36.4 178.304 35.728 178.784 34.832L189.872 9.728C191.376 6.56 192.176 4.464 192.272 3.44H192.704L206.96 34.736C207.44 35.664 208.048 36.368 208.784 36.848C209.52 37.296 210.272 37.52 211.04 37.52ZM185.648 26.576H195.248L190.592 14.768L185.648 26.576ZM278.855 46.16C276.359 47.408 273.703 48.032 270.887 48.032C268.391 48.032 266.119 47.648 264.071 46.88C259.655 45.248 255.895 42.064 252.791 37.328C251.991 36.176 250.503 33.968 248.327 30.704C246.151 27.44 244.743 25.36 244.103 24.464C242.983 22.704 242.087 21.744 241.415 21.584V21.104C241.447 21.104 241.479 21.104 241.511 21.104C241.575 21.104 241.639 21.104 241.703 21.104C241.767 21.104 241.831 21.104 241.895 21.104C241.959 21.104 242.039 21.104 242.135 21.104C242.231 21.104 242.311 21.104 242.375 21.104C244.007 21.104 245.511 20.736 246.887 20C248.967 18.848 250.007 16.72 250.007 13.616C250.007 11.344 249.367 9.6 248.087 8.384C246.807 7.136 245.271 6.512 243.479 6.512H239.831V34.496C239.831 35.328 240.135 36.048 240.743 36.656C241.351 37.232 242.071 37.52 242.903 37.52H243.527V38H228.935V37.52H229.559C230.359 37.52 231.063 37.232 231.671 36.656C232.279 36.08 232.599 35.376 232.631 34.544V7.904C232.599 7.072 232.279 6.368 231.671 5.792C231.095 5.184 230.391 4.88 229.559 4.88H228.935V4.4H245.399C249.527 4.4 252.727 5.344 254.999 7.232C256.791 8.704 257.687 10.784 257.687 13.472C257.687 16.16 256.807 18.352 255.047 20.048C253.319 21.712 251.335 22.544 249.095 22.544C248.903 22.544 248.695 22.528 248.471 22.496C249.783 23.2 250.871 23.984 251.735 24.848C252.631 25.712 253.399 26.528 254.039 27.296C254.711 28.064 255.271 28.752 255.719 29.36C256.199 29.936 256.823 30.72 257.591 31.712C258.359 32.672 259.159 33.68 259.991 34.736C260.823 35.792 261.735 36.88 262.727 38C263.751 39.088 264.871 40.128 266.087 41.12C267.335 42.112 268.599 42.928 269.879 43.568C272.599 44.944 275.591 45.648 278.855 45.68V46.16ZM299.708 37.52H300.14V38H284.828V37.52H285.26C285.964 37.52 286.476 37.312 286.796 36.896C287.148 36.448 287.324 36.032 287.324 35.648C287.324 35.264 287.244 34.88 287.084 34.496L284.732 28.592H273.5L271.004 34.496C270.844 34.912 270.764 35.312 270.764 35.696C270.764 36.048 270.924 36.448 271.244 36.896C271.596 37.312 272.14 37.52 272.876 37.52H273.26V38H262.988V37.52H263.42C264.156 37.52 264.892 37.296 265.628 36.848C266.364 36.4 266.972 35.728 267.452 34.832L278.54 9.728C280.044 6.56 280.844 4.464 280.94 3.44H281.372L295.628 34.736C296.108 35.664 296.716 36.368 297.452 36.848C298.188 37.296 298.94 37.52 299.708 37.52ZM274.316 26.576H283.916L279.26 14.768L274.316 26.576ZM344.498 4.88H344.066C343.266 4.88 342.45 5.12 341.618 5.6C340.818 6.08 340.242 6.768 339.89 7.664L331.826 33.536C331.282 35.296 331.01 36.928 331.01 38.432C331.01 38.592 331.01 38.736 331.01 38.864H330.53L320.066 15.68L312.482 33.536C311.746 35.392 311.362 37.168 311.33 38.864H310.85L299.378 7.664C298.962 6.736 298.37 6.048 297.602 5.6C296.834 5.12 296.05 4.88 295.25 4.88H294.866V4.4H309.506V4.88H309.074C308.402 4.88 307.89 5.104 307.538 5.552C307.218 5.968 307.058 6.368 307.058 6.752C307.058 7.136 307.122 7.504 307.25 7.856L313.154 24.56L321.842 3.632L322.274 3.68L331.826 24.752L336.626 7.856C336.722 7.504 336.77 7.136 336.77 6.752C336.77 6.368 336.61 5.968 336.29 5.552C336.002 5.104 335.506 4.88 334.802 4.88H334.37V4.4H344.498V4.88Z" fill="#FFFDFD"/>
</svg>
