<svg width="42" height="42" viewBox="0 0 42 42" fill="none"
  xmlns="http://www.w3.org/2000/svg">
  <path d="M42 21C42 25.6348 40.498 29.9184 37.955 33.3916C34.1348 38.6105 27.9628 36.6338 21 36.6338C14.0372 36.6338 7.86516 38.6105 4.04496 33.3916C1.50199 29.9184 0 25.6348 0 21C0 9.40242 9.40242 0 21 0C32.5976 0 42 9.40242 42 21Z" fill="#EF9B14"/>
  <path d="M21 36.6338C27.9628 36.6338 34.1348 38.6105 37.955 33.3916C40.498 29.9184 42 25.6348 42 21C42 20.877 41.9974 20.7546 41.9953 20.6322L27.3744 6.01125L12.8777 18.0529L15.846 21.0407C16.1975 22.3359 17.6219 25.8546 17.6219 25.8546L4.04492 33.3916V33.3917C7.8652 38.6105 14.0371 36.6338 21 36.6338Z" fill="#DB8200"/>
  <path d="M14.1295 24.6364H27.8703V28.2188H14.1295V24.6364Z" fill="#584B66"/>
  <path d="M21 24.6364H27.8701V28.2188H21V24.6364Z" fill="#4A3E56"/>
  <path d="M16.4037 21.3682H25.5961V31.1168H16.4037V21.3682Z" fill="#FFBB7D"/>
  <path d="M21 21.3684H25.5962V31.117H21V21.3684Z" fill="#EFA36A"/>
  <path d="M11.0383 27.2583H30.9617V36.634H11.0383V27.2583Z" fill="#FFD4A6"/>
  <path d="M21 27.2583H30.9619V36.6338H21V27.2583Z" fill="#FFBB7D"/>
  <path d="M37.955 33.3916C34.1348 38.6105 27.9628 42 21 42C14.0371 42 7.86512 38.6105 4.04492 33.3916C4.14992 29.9865 6.94391 27.2582 10.3745 27.2582H16.4037L21 31.6641L25.5962 27.2582H31.6263C35.0577 27.2582 37.8508 29.9857 37.955 33.3916Z" fill="#7B7284"/>
  <path d="M37.955 33.3916C34.1348 38.6105 27.9628 42 21 42V31.6641L24.5938 28.2187L25.5962 27.2582H31.6263C35.0577 27.2582 37.8509 29.9857 37.955 33.3916Z" fill="#635A6D"/>
  <path d="M28.6797 12.3989C28.3553 7.47352 24.3712 5.65325 20.9999 5.65325C17.6287 5.65325 13.6446 7.47352 13.3202 12.3989C12.4483 12.5675 11.8291 13.711 11.9266 14.6355L12.0761 16.7394C12.1784 17.7103 13.0317 18.4191 13.9722 18.3136L14.1344 18.2961C16.0609 23.4692 19.0822 24.0086 20.9999 24.3114C22.9176 24.0086 25.9389 23.4692 27.8654 18.2961L28.0276 18.3136C28.9681 18.4191 29.8215 17.7104 29.9238 16.7394L30.0732 14.6355C30.1708 13.711 29.5515 12.5675 28.6797 12.3989Z" fill="#FFD4A6"/>
  <path d="M30.0733 14.6355L29.9239 16.7394C29.8216 17.7103 28.9682 18.4191 28.0277 18.3136L27.8655 18.2961C27.2071 20.062 26.4216 21.2886 25.5962 22.1492C24.0045 23.8096 22.2634 24.1117 21 24.3114V5.65325C24.3712 5.65325 28.3553 7.47352 28.6798 12.3989C29.5515 12.5675 30.1708 13.711 30.0733 14.6355Z" fill="#FFBB7D"/>
  <path d="M22.6264 16.7773C21.6887 15.98 20.3114 15.98 19.3737 16.7773C18.3279 17.6663 17.0146 18.1795 15.6431 18.235L14.1344 18.2961L14.2355 18.9042C14.7856 22.2119 17.6469 24.6368 20.9999 24.6368C24.4281 24.4466 27.2656 21.9036 27.8288 18.5167L27.8654 18.2961L26.3567 18.235C24.9854 18.1795 23.6721 17.6663 22.6264 16.7773Z" fill="#EFEBDC"/>
  <path d="M27.8652 18.2963L27.8291 18.5169C27.5477 20.2109 26.6971 21.6932 25.4888 22.776C24.2804 23.8588 22.7145 24.5421 21 24.6365V16.179C21.5791 16.179 22.1583 16.3784 22.6267 16.777C23.6718 17.6663 24.9851 18.1798 26.3566 18.2347L27.8652 18.2963Z" fill="#D6CFBD"/>
  <path d="M14.1296 24.6364L21 31.6641L17.5648 35.3555L11.6895 27.2583L14.1296 24.6364Z" fill="#9D97A5"/>
  <path d="M27.8704 24.6364L21 31.6641L24.4352 35.3555L30.3105 27.2583L27.8704 24.6364Z" fill="#7F7887"/>
  <path d="M16.3447 2.41992C16.3447 2.41992 11.9029 6.74953 12.8228 11.022L13.464 15.2783H15.2277L16.0709 12.1396C16.3709 11.023 17.522 10.3458 18.6355 10.6573C18.7426 10.6873 18.8492 10.7211 18.955 10.7586L19.2634 10.8681C20.3926 11.2689 21.624 11.2292 22.7405 10.7942C22.9654 10.7066 23.1945 10.6363 23.4258 10.5833C24.523 10.3321 25.6221 10.9977 25.9141 12.0848L26.7721 15.2783H28.5358L29.1752 10.8467C29.3124 7.04788 26.2587 2.41992 16.3447 2.41992Z" fill="#494949"/>
  <path d="M29.1752 10.847L28.5362 15.2783H26.7725L25.9145 12.0848C25.6225 10.9979 24.5232 10.3318 23.4257 10.5837C23.1943 10.6362 22.9655 10.7067 22.7407 10.7945C22.1796 11.0127 21.5906 11.1316 21 11.1448V2.82762C27.2434 4.0384 29.2876 7.72324 29.1752 10.847Z" fill="#333333"/>
</svg>
